<svg xmlns="http://www.w3.org/2000/svg" viewBox="0 0 496 512"><defs><style>.cls-1{fill:#fff;}</style></defs><g id="singer_con" data-name="singer con"><path class="cls-1" d="M40.02639,338.48485C18.22955,284.80256,17.98862,223.56369,38.48366,169.4263c17.16525-45.34176,49.40391-84.4417,91.43853-108.79873a214.14276,214.14276,0,0,1,78.896-26.56976l-2.54095-1.034c8.86307,15.47985,16.38192,32.40486,18.16662,50.34148,1.25236,12.58658-1.07773,23.97682-5.38293,35.7666-2.64506,7.24349-4.89672,14.47559-5.2869,22.23508-.46881,9.32315,1.40729,18.72774,4.46879,27.499,5.4867,15.71956,14.57046,29.38825,23.22027,43.45641,3.13535,5.09938,6.4056,10.80406.0226,14.62854-8.85318,5.30454-19.20082,8.82387-29.19931,11.2032a2.30492,2.30492,0,0,0-1.57149,2.76777c.84133,4.91615,1.89613,9.78973,3.20566,14.60325.84267,3.09745,3.6805,8.41313,2.44729,11.6658-2.03266,5.36128-12.12211,6.13818-16.61506,6.644-1.29844.14619-2.75035,1.34213-2.16963,2.84814,3.14834,8.16473,5.42451,19.39618-2.55591,25.60613-5.69641,4.43266-12.01691,7.01572-16.86794,12.67-3.572,4.16344-5.26414,9.01494-7.52857,13.91232a88.3202,88.3202,0,0,1-14.02263,20.8312c-11.69021,13.2263-30.85493,13.34806-45.89237,5.7907-8.12175-4.08174-13.92664-10.62539-23.68714-7.44012-13.38295,4.36745-22.53536,19.00822-29.50269,30.227a2.23444,2.23444,0,0,0,0,2.27124c17.0267,27.09907,39.60245,50.41568,66.80262,67.39357,27.59805,17.22623,59.04523,27.40261,91.27428,31.20775a247.10378,247.10378,0,0,0,65.6955-.9709c2.85408-.42872,1.64128-4.7655-1.19628-4.33926-65.87711,9.89557-136.40078-7.97059-185.21656-54.35843a212.881,212.881,0,0,1-33.47394-41.204v2.27124c6.33874-10.20664,15.62031-25.97955,28.64639-28.6652,4.50141-.92808,8.01142.79648,11.65669,3.31445a54.67411,54.67411,0,0,0,17.57312,8.14186c15.41253,4.02679,30.93645.95175,41.41145-11.51864,5.29147-6.29945,10.35546-13.19466,13.81718-20.68127,2.59422-5.61049,4.46864-10.86326,8.98812-15.31049,5.44208-5.35507,13.99057-7.70367,18.23345-14.19751,5.169-7.91137,3.37527-17.87315.18449-26.14795l-2.16963,2.84814c6.67459-.75148,17.02869-1.89522,20.49476-8.8492,1.53124-3.07212.60243-6.24781-.30459-9.36627a184.16848,184.16848,0,0,1-4.88881-20.3939l-1.57149,2.76777a129.06073,129.06073,0,0,0,27.03841-9.9604c4.37846-2.15232,8.92281-4.75451,9.31662-10.13738.4095-5.59733-3.564-10.961-6.42859-15.39474A258.4807,258.4807,0,0,1,229.30584,183.061c-9.22582-18.3206-14.48348-37.734-7.6812-57.77986,4.33472-12.77413,8.31081-24.40176,7.61048-38.07422-1.03083-20.12442-9.18331-39.1828-19.07226-56.45439a2.341,2.341,0,0,0-2.54095-1.034c-49.69335,6.69216-96.07083,30.19766-129.96366,67.30175-34.09963,37.33048-53.85264,85.92305-57.98373,136.12856A232.32422,232.32422,0,0,0,35.68713,339.68112c1.07528,2.64825,5.43012,1.49035,4.33926-1.19627Z"/><path class="cls-1" d="M347.32719,384.48451c7.54133-2.17343,15.00424-5.54553,20.10268-11.71074,5.53081-6.688,7.69447-15.922,10.67725-23.90743a2.269,2.269,0,0,0-2.16963-2.84814q-14.3591-.41295-28.71821-.82591l2.25,2.25V322.99582l-2.25,2.25,28.71821.16517a2.28179,2.28179,0,0,0,2.25-2.25V307.13865a2.28806,2.28806,0,0,0-2.25-2.25q-14.27654-.33037-28.55308-.66072l2.25,2.25q-.08259-9.99332-.16513-19.98664l-2.25,2.25q14.35911.24775,28.71821.49554a2.26209,2.26209,0,0,0,2.25-2.25,44.9811,44.9811,0,0,0-15.92511-30.62429c-11.02747-9.01-24.59436-10.04513-38.37765-10.0298-13.6852.01522-27.14483,1.06871-38.08561,10.02979a45.0068,45.0068,0,0,0-15.92511,30.6243,2.26716,2.26716,0,0,0,2.25,2.25q14.35911-.24777,28.71822-.49554l-2.25-2.25q-.08261,9.99331-.16514,19.98664l2.25-2.25q-14.27654.33037-28.55308.66072a2.28656,2.28656,0,0,0-2.25,2.25V323.161a2.28143,2.28143,0,0,0,2.25,2.25l28.71822-.16517-2.25-2.25v24.44647l2.25-2.25q-14.35911.41294-28.71822.82591a2.269,2.269,0,0,0-2.16963,2.84814c4.49353,12.03,7.60142,24.78178,19.77408,31.25,10.94077,5.81363,22.49232,6.46152,34.56544,6.93484l-2.25-2.25-.2244,79.958a2.27,2.27,0,0,0,2.84814,2.16963c37.308-11.73212,71.15553-33.09452,96.56485-62.97549,25.11243-29.53182,41.18912-65.87531,47.99327-103.93122,14.87168-83.1779-12.319-172.6524-79.14654-226.48553-38.19829-30.77074-86.206-46.9951-135.15672-47.07074-2.89572-.00447-2.90013,4.49552,0,4.5,43.19644.06675,85.83122,12.85824,121.27771,37.716,32.75728,22.97188,58.31969,55.44733,73.97939,92.18907,31.15888,73.10683,23.833,164.57006-23.62674,229.15964-25.53733,34.75465-62.08012,59.66543-103.0815,72.559l2.84814,2.16962.2244-79.958a2.29153,2.29153,0,0,0-2.25-2.25c-10.74661-.42131-21.06848-.81585-30.96727-5.64757-11.93651-5.82636-14.72441-17.69872-19.033-29.23355L272.124,350.5182q14.35911-.41295,28.71822-.82591a2.28756,2.28756,0,0,0,2.25-2.25V322.99582a2.28143,2.28143,0,0,0-2.25-2.25L272.124,320.911l2.25,2.25V307.13865l-2.25,2.25q14.27654-.33037,28.55308-.66072a2.2885,2.2885,0,0,0,2.25-2.25q.08259-9.99332.16514-19.98664a2.27771,2.27771,0,0,0-2.25-2.25q-14.35911.24775-28.71822.49554l2.25,2.25a40.38056,40.38056,0,0,1,14.6071-27.44232c9.99638-8.05145,22.53082-8.69115,34.90362-8.71177,12.47442-.0208,25.10694.62038,35.19567,8.71178a40.32489,40.32489,0,0,1,14.60709,27.44231l2.25-2.25q-14.3591-.24777-28.71821-.49554a2.27828,2.27828,0,0,0-2.25,2.25q.08259,9.99331.16513,19.98664a2.28947,2.28947,0,0,0,2.25,2.25q14.27655.33037,28.55308.66072l-2.25-2.25V323.161l2.25-2.25-28.71821-.16517a2.28179,2.28179,0,0,0-2.25,2.25v24.44647a2.28942,2.28942,0,0,0,2.25,2.25q14.35911.41294,28.71821.82591l-2.16962-2.84814c-2.59374,6.94387-4.51645,15.187-8.9641,21.19621-4.50688,6.08929-11.58764,9.237-18.67286,11.279-2.77752.80049-1.59632,5.14409,1.19628,4.33926Z"/><path class="cls-1" d="M243.80792,341.00031A70.92506,70.92506,0,0,0,298.262,410.06739c2.818.65307,4.02084-3.68466,1.19628-4.33925a66.40942,66.40942,0,0,1-51.15035-64.72783c.01831-2.89621-4.48167-2.89942-4.5,0Z"/><path class="cls-1" d="M398.6023,341.00031A66.41014,66.41014,0,0,1,347.452,405.72814c-2.82005.65355-1.62637,4.99341,1.19628,4.33925a70.92466,70.92466,0,0,0,54.45407-69.06708c-.0183-2.89463-4.51834-2.901-4.5,0Z"/><path class="cls-1" d="M372.52893,149.34737a17.61913,17.61913,0,0,0-26.10986,13.0773,18.11489,18.11489,0,0,0,22.83014,19.79643c9.70883-2.74652,12.35551-10.98755,12.91109-19.99774l1.50759-24.44942,1.41162-22.8932a2.25348,2.25348,0,0,0-2.25-2.25l-60.951,7.64985c-.888.11145-2.02058.61265-2.16963,1.65187L314.27367,159.829l-2.76652,19.28935c-1.13124,7.88751-3.87006,16.57726-13.31963,16.89625a13.46321,13.46321,0,0,1-13.75519-15.68278c1.72478-9.7794,12.63225-13.56327,20.70988-8.65756,2.48176,1.50722,4.7458-2.38277,2.27124-3.88562-12.30376-7.47232-28.77867,1.30948-27.66309,16.23457.98048,13.11767,16.71331,21.27,27.74811,13.57407,6.82508-4.76,7.76394-13.21078,8.85127-20.79211l4.36546-30.43784,3.33292-23.23859-2.16963,1.65186,60.951-7.64985-2.25-2.25-2.72385,44.17438c-.10457,1.696-.21562,3.39174-.31374,5.08813-.44894,7.762-4.843,14.34458-13.4499,14.30094-8.70187-.04412-14.859-8.30454-13.02391-16.69786A13.12156,13.12156,0,0,1,370.2577,153.233c2.54555,1.38233,4.81976-2.50167,2.27123-3.88562Z"/></g></svg>