<svg xmlns="http://www.w3.org/2000/svg" viewBox="0 0 496 512"><defs><style>.cls-1{fill:#fff;}</style></defs><g id="podcast_icon" data-name="podcast icon"><path class="cls-1" d="M258.0509,483.88228c15.21724.00428,30.64.79771,45.83363.01291,13.19176-.6814,17.07067-19.05859,4.109-23.80744-2.85946-1.04763-5.98655-.79435-8.97746-.79435H258.0509l2.25,2.25V396.102l-2.25,2.25a135.37384,135.37384,0,0,0,92.41871-47.27575c21.23968-25.19195,31.67331-56.54852,31.67331-89.313,0-9.961.73436-20.20482-.04124-30.13577-1.25821-16.11023-24.074-14.95306-24.56055.93212-.308,10.05459.02277,20.15789,0,30.21792a112.75637,112.75637,0,0,1-11.26768,49.48809c-16.38867,33.4186-49.29808,57.30221-86.46514,61.27774a109.71573,109.71573,0,0,1-119.65137-89.5977c-2.25887-12.51087-1.698-25.29738-1.698-37.95249,0-9.46077,2.16437-25.59223-11.62569-26.33122-7.23921-.38793-12.61161,5.37736-12.9761,12.31746-.21606,4.11383,0,8.2995,0,12.41718,0,12.0963-.49072,24.33885.98377,36.369a134.12815,134.12815,0,0,0,16.66341,50.30258,135.52672,135.52672,0,0,0,80.09236,62.63976,137.57339,137.57339,0,0,0,26.35247,4.63911l-2.25-2.25V461.5434l2.25-2.25c-15.10672,0-30.40125-.7512-45.48619,0-13.03063.64889-17.823,18.80532-4.74133,23.79076,2.8345,1.08022,5.97161.81058,8.94774.80974l14.3721-.004,26.89015-.00757c2.8955-.00082,2.90037-4.50082,0-4.5l-43.23506.01218c-3.83267.00108-7.58329-.38865-9.55455-4.36977-3.07023-6.20056,2.42219-11.04788,8.26516-11.23129,7.57492-.23779,15.19546,0,22.77364,0h21.76834a2.28269,2.28269,0,0,0,2.25-2.25V396.097a2.3032,2.3032,0,0,0-2.25-2.25A130.92881,130.92881,0,0,1,147.864,346.87274c-20.49574-24.807-29.50685-55.15528-29.50685-86.98657,0-9.18528-.8562-18.80143,0-27.94545.56443-6.02808,7.41118-10.59873,12.68327-6.01185,2.32768,2.02515,2.84917,4.79277,2.91853,7.69555.12194,5.10366,0,10.22546,0,15.33037,0,11.20211-.31829,22.39085,1.40788,33.5018a113.08311,113.08311,0,0,0,18.14673,45.95415A113.57208,113.57208,0,0,0,325.662,347.71708a117.09918,117.09918,0,0,0,36.37909-84.93954c.02222-9.82051-.24679-19.66839,0-29.48523.06114-2.43235.249-4.72033,2.07231-6.64644,5.15743-5.44826,13.09847-1.17046,13.52948,5.64248.22625,3.57619,0,7.2372,0,10.81911,0,10.6672.427,21.46622-.42235,32.11043a128.60424,128.60424,0,0,1-14.99292,50.67145A129.57711,129.57711,0,0,1,258.0509,393.852a2.29786,2.29786,0,0,0-2.25,2.25V461.5434a2.28269,2.28269,0,0,0,2.25,2.25h42.92373c3.64031,0,7.25843.26535,9.47928,3.731,3.84726,6.00359-1.46654,11.67121-7.52081,11.87055-7.6309.25125-15.31308-.00431-22.94759-.00646l-21.93461-.00618c-2.89557-.00082-2.90029,4.49918,0,4.5Z"/><path class="cls-1" d="M259.95787,483.89519c2.89554,0,2.90034-4.5,0-4.5-2.89553,0-2.90033,4.5,0,4.5Z"/><path class="cls-1" d="M258.64907,331.44109a80.1523,80.1523,0,0,0,51.81372-29.63722c12.18333-15.48488,17.08867-33.71986,17.08867-53.17868a2.28269,2.28269,0,0,0-2.25-2.25H303.85835c-6.57508,0-21.56326,2.65007-22.3785-7.13813-.91988-11.04454,15.3643-8.46869,22.03353-8.46869h21.78808a2.28269,2.28269,0,0,0,2.25-2.25V189.68672a2.28269,2.28269,0,0,0-2.25-2.25h-47.566c-4.01949,0-8.24424-.32969-10.28086-4.54348-3.09773-6.40922,2.87634-10.94281,8.60017-11.05832,8.60373-.17362,17.22906,0,25.83435,0h23.41235a2.28269,2.28269,0,0,0,2.25-2.25V130.74825a2.2827,2.2827,0,0,0-2.25-2.25H303.51693c-6.65587,0-22.94345,2.58519-22.03776-8.45729.80371-9.79916,15.79713-7.14451,22.37918-7.14451h21.44311a2.28269,2.28269,0,0,0,2.25-2.25c0-34.04958-18.668-65.4616-51.02081-78.17638-33.02179-12.9777-71.48592-1.34774-92.51434,26.98594-11.1981,15.08831-15.56776,32.64539-15.56776,51.19547a2.28269,2.28269,0,0,0,2.25,2.25h21.78453c6.65587,0,22.94345-2.5852,22.03776,8.45728-.80371,9.79916-15.79713,7.14452-22.37918,7.14452H170.69855a2.28269,2.28269,0,0,0-2.25,2.25V169.59a2.2827,2.2827,0,0,0,2.25,2.25h42.92374c3.64032,0,7.25845.26537,9.47929,3.731,3.8476,6.00418-1.467,11.67022-7.52083,11.8708-7.63091.25284-15.313,0-22.94759,0H170.69855a2.28269,2.28269,0,0,0-2.25,2.25v38.83164a2.28269,2.28269,0,0,0,2.25,2.25h21.78453c6.65587,0,22.94345-2.5852,22.03776,8.45728-.80371,9.79916-15.79713,7.14452-22.37918,7.14452H170.69855a2.28269,2.28269,0,0,0-2.25,2.25c0,19.46108,4.903,37.69188,17.08863,53.17863a80.1551,80.1551,0,0,0,51.8136,29.63725c2.83226.39544,4.05672-3.93988,1.19628-4.33926A76.34423,76.34423,0,0,1,189.551,299.6649c-11.92595-14.744-16.60242-32.35431-16.60242-51.03971l-2.25,2.25H189.702c6.12825,0,12.86417.81223,18.94723-.1651,10.742-1.72587,14.02343-16.10621,4.953-22.22522-5.29608-3.57281-13.65-2.21148-19.68022-2.21148H170.69855l2.25,2.25V189.69175l-2.25,2.25c15.21751,0,30.63985.78729,45.83363,0,13.19062-.68349,17.07193-19.05812,4.109-23.80743-2.85946-1.04764-5.98655-.79437-8.97747-.79437H170.69855l2.25,2.25V130.75329l-2.25,2.25H189.702c6.12825,0,12.86417.81223,18.94723-.1651,10.742-1.72587,14.02343-16.10621,4.953-22.22522-5.29608-3.57281-13.65-2.21148-19.68022-2.21148H170.69855l2.25,2.25c0-15.32295,2.8868-29.74988,10.94676-42.98408a75.61478,75.61478,0,0,1,36.369-30.76524c31.45319-12.47429,67.95761-1.8107,87.95067,25.41926,10.44577,14.22684,14.83651,30.8536,14.83651,48.325l2.25-2.25H306.298c-6.12825,0-12.86417-.81224-18.94723.1651-10.742,1.72587-14.02343,16.1062-4.953,22.22522,5.29608,3.57281,13.65,2.21148,19.68022,2.21148h23.22353l-2.25-2.25v38.83667l2.25-2.25c-16.81378,0-33.75267-.64606-50.55191,0-14.03184.53964-17.21917,20.57043-3.07827,24.19778,2.74274.70355,5.84051.404,8.64173.404h44.98845l-2.25-2.25v38.83165l2.25-2.25H305.96561c-6.14013,0-13.52379-1.12272-19.56677.40461-10.54455,2.66507-12.73874,17.22313-3.16766,22.62369,5.225,2.94824,13.48264,1.57852,19.18991,1.57852h22.88037l-2.25-2.25c0,18.68355-4.675,36.29781-16.60247,51.03977a76.35122,76.35122,0,0,1-48.9962,27.43687c-2.85592.39875-1.64056,4.73534,1.19628,4.33926Z"/><path class="cls-1" d="M133.9407,189.89935a7.7283,7.7283,0,0,1-13.53985,4.57317c-1.60292-1.84082-1.96811-4.10916-2.04375-6.43586-.113-3.477,0-6.97671,0-10.45513V125.809c0-3.49617-.46067-7.37209,2.02627-10.232,4.90177-5.63683,12.98886-1.59647,13.57552,5.12533.0702.80434,0,1.64773,0,2.45428v46.78017c0,2.89554,4.5,2.90033,4.5,0V133.76357c0-4.32049.242-8.71891,0-13.03445-.49285-8.78883-9.45808-15.32153-17.82955-10.98208-9.783,5.07116-6.77224,20.83176-6.77224,29.80126v43.8064c0,5.07956-.40447,10.21831,3.36177,14.2998,7.50567,8.13391,20.5354,2.86865,21.22183-7.75515.18683-2.89153-4.3139-2.88022-4.5,0Z"/><path class="cls-1" d="M360.99737,169.93684V125.95116c0-4.81356-.53916-10.64353,5.22643-12.61841,12.97082-4.44289,10.37537,16.043,10.37537,22.72091v37.46861c0,4.58613.09328,9.18325,0,13.76857a12.87982,12.87982,0,0,1-.5952,4.61615c-2.88693,7.705-14.44381,6.42112-14.98841-2.00764-.18579-2.87547-4.68714-2.89633-4.5,0,.59913,9.27268,10.7182,15.05889,18.86806,9.77214,4.758-3.08649,5.71555-8.13718,5.71555-13.31765v-60.274c0-4.268.30247-8.48947-2.21149-12.23865-5.30113-7.90583-17.56761-6.74578-21.35246,1.95847-1.684,3.87289-1.03785,8.86084-1.03785,12.97322v41.164c0,2.89554,4.5,2.90033,4.5,0Z"/></g></svg>