<svg xmlns="http://www.w3.org/2000/svg" viewBox="0 0 496 512"><defs><style>.cls-1{fill:#fff;}</style></defs><g id="album_icon" data-name="album icon"><path class="cls-1" d="M320.77294,167.44189a259.08166,259.08166,0,0,0-40.9104-31.0239c-3.61639-2.21926-8.86969-3.898-10.11278-8.43262a7.112,7.112,0,0,1,3.33969-7.86737c2.7217-1.54932,5.44054-.69356,7.98336.65468,6.63673,3.5189,12.95123,8.02266,19.1143,12.3009,24.86281,17.25911,47.4897,38.49571,63.43078,64.413a165.42212,165.42212,0,0,1,11.11445,21.35691c1.74938,4.07314,3.8364,8.47312,4.70613,12.83735,1.38769,6.96328-6.02526,11.3966-11.56764,6.96837v3.182a2.29635,2.29635,0,0,0,0-3.182c-3.69847-3.79747-4.78012-10.31-6.82587-15.124a147.39136,147.39136,0,0,0-7.46385-15.12027,168.96742,168.96742,0,0,0-18.79642-26.41143c-1.88713-2.20274-5.05756.99272-3.182,3.182A161.3105,161.3105,0,0,1,351.32129,213.617a138.58479,138.58479,0,0,1,7.20615,15.5884c1.73177,4.47078,2.737,9.10968,6.16142,12.62577v-3.182a2.2704,2.2704,0,0,0,0,3.182c5.82715,4.65575,13.71662,4.32676,17.85031-2.44406,4.28545-7.01938-1.05908-16.17875-3.9212-22.81488A179.91472,179.91472,0,0,0,348.37011,169.436a249.48022,249.48022,0,0,0-43.9943-38.90733q-5.75-4.05712-11.67839-7.85285c-3.8718-2.48443-8.00606-5.75107-12.392-7.23378A11.558,11.558,0,0,0,265.11,124.70138a12.17972,12.17972,0,0,0,4.96764,11.14869c4.66789,3.57107,10.32161,6.15945,15.23868,9.43362A253.4728,253.4728,0,0,1,317.591,170.62387c2.11821,1.971,5.3076-1.20412,3.182-3.182Z"/><path class="cls-1" d="M222.94929,267.203c2.89554,0,2.90033-4.5,0-4.5-2.89553,0-2.90033,4.5,0,4.5Z"/><path class="cls-1" d="M225.11892,264.35484c-4.45128-11.5672-.90649-24.68935,9.91914-31.29278a24.93988,24.93988,0,0,1,33.91678,34.8219c-6.84041,10.65356-20.12836,13.856-31.53612,9.1066-2.67044-1.11179-3.83542,3.2405-1.19628,4.33925,21.07879,8.77575,44.48545-8.828,40.82115-31.69781-3.4985-21.835-30.20253-32.04159-47.41465-18.235a29.788,29.788,0,0,0-8.84928,34.15416c1.02937,2.67493,5.3819,1.51314,4.33926-1.19628Z"/><path class="cls-1" d="M190.24632,297.7271c-18.20266-24.74534-19.36691-58.5801-1.91719-84.04416A71.834,71.834,0,1,1,295.4755,307.85629c-25.57845,23.04205-64.29355,23.93926-91.67527,3.51632-2.32257-1.73232-4.56847,2.1722-2.27124,3.88562,25.92779,19.3385,62.16384,20.56851,88.96415,2.2031a76.32814,76.32814,0,1,0-99.18918-114.7c-24.57312,26.82894-26.45989,67.98655-4.94326,97.237,1.698,2.30836,5.605.06615,3.88562-2.27123Z"/><path class="cls-1" d="M87.44308,399.7234a216.65317,216.65317,0,0,1-23.50435-259.54C108.99879,67.65976,194.7313,27.78107,279.24512,40.01675c83.07621,12.02755,153.43522,73.373,176.80082,153.97657,23.81587,82.15685-4.166,172.5707-69.87794,227.17161-71.5728,59.47079-176.56779,65.87646-254.96885,15.61716a220.73919,220.73919,0,0,1-29.3868-22.61553c-2.13829-1.94508-5.32982,1.22822-3.182,3.182A221.14706,221.14706,0,0,0,363.33994,443.0076c74.12352-45.4395,115.30371-132.20466,103.73178-218.36137C455.59253,139.17994,392.96515,66.4115,310.21778,42.174c-84.182-24.65771-177.389,4.07855-233.02748,71.85542A221.0984,221.0984,0,0,0,61.88618,373.72819,228.11416,228.11416,0,0,0,84.2611,402.90538c1.94179,2.15684,5.11595-1.03383,3.182-3.182Z"/><path class="cls-1" d="M354.90907,127.44429a451.42063,451.42063,0,0,0-49.54945-39.51874c-3.62077-2.51294-7.93857-4.55294-11.09679-7.65064-1.93737-1.90024-3.91239-4.74324-3.89621-7.61965.02206-3.92153,3.8575-5.726,7.35508-4.78167,4.30448,1.16219,8.28815,4.70123,11.88964,7.18576q6.24095,4.30537,12.36534,8.7767c31.45742,22.99613,60.87976,49.65569,83.97806,81.19641a264.24423,264.24423,0,0,1,17.19353,26.6182c2.55348,4.54289,5.14978,9.17873,7.24769,13.9548,1.40887,3.20742,2.809,7.31137-.94684,9.5802-3.422,2.06717-7.53435-.32343-10.23957-2.57791v3.182h0a2.29059,2.29059,0,0,0,0-3.182c-4.70727-4.61454-6.92468-11.64982-10.053-17.36568-3.31641-6.05951-6.929-11.95507-10.78712-17.68437a276.20409,276.20409,0,0,0-25.41254-31.99435c-1.95857-2.1418-5.134,1.0474-3.182,3.182a266.25012,266.25012,0,0,1,26.62422,33.97126q5.65833,8.66415,10.49949,17.82855c2.77625,5.27444,4.80456,11.00536,9.129,15.24459v-3.182h0a2.27385,2.27385,0,0,0,0,3.182c6.0215,5.01821,17.65531,7.74832,20.1896-2.60624.958-3.91419-.98225-7.82021-2.61722-11.26429-2.6965-5.6802-5.73833-11.22259-8.92252-16.64184a299.09948,299.09948,0,0,0-42.23488-55.04412A434.43668,434.43668,0,0,0,327.633,82.44573q-7.09672-5.27353-14.36361-10.31257c-4.69009-3.25511-9.89992-7.92-15.69341-8.90073-8.24682-1.39605-13.60959,6.113-10.88625,13.63084,1.71813,4.74294,5.54526,7.89667,9.654,10.53308,6.45013,4.13877,12.70211,8.53865,18.87083,13.08989a424.38507,424.38507,0,0,1,36.51254,30.14c2.1221,1.966,5.3119-1.20869,3.182-3.182Z"/><path class="cls-1" d="M176.44988,338.87826a259.082,259.082,0,0,0,40.91039,31.0239c3.61639,2.21926,8.8697,3.898,10.11279,8.43262a7.112,7.112,0,0,1-3.33969,7.86737c-2.72171,1.54932-5.44054.69356-7.98336-.65468-6.63674-3.5189-12.95123-8.02266-19.1143-12.3009-24.86281-17.25911-47.4897-38.49571-63.43078-64.413a165.41962,165.41962,0,0,1-11.11445-21.35691c-1.74938-4.07314-3.83641-8.47312-4.70614-12.83735-1.38768-6.96328,6.02526-11.3966,11.56765-6.96837v-3.182a2.29635,2.29635,0,0,0,0,3.182c3.69847,3.79747,4.78012,10.31,6.82586,15.124a147.39348,147.39348,0,0,0,7.46386,15.12027,168.96676,168.96676,0,0,0,18.79642,26.41143c1.88712,2.20274,5.05756-.99272,3.182-3.182a161.31109,161.31109,0,0,1-19.71858-28.44156,138.58473,138.58473,0,0,1-7.20614-15.5884c-1.73178-4.47078-2.737-9.10968-6.16142-12.62577v3.182a2.2704,2.2704,0,0,0,0-3.182c-5.82715-4.65575-13.71662-4.32676-17.85031,2.44406-4.28545,7.01938,1.05908,16.17875,3.9212,22.81488a179.91447,179.91447,0,0,0,30.24785,47.13627A249.48016,249.48016,0,0,0,192.847,375.79153q5.75,4.05712,11.67839,7.85285c3.8718,2.48442,8.00606,5.75107,12.392,7.23378a11.558,11.558,0,0,0,15.19542-9.25939,12.17969,12.17969,0,0,0-4.96764-11.14869c-4.66789-3.57107-10.3216-6.15946-15.23867-9.43362a253.4721,253.4721,0,0,1-32.27468-25.34018c-2.11821-1.971-5.3076,1.20412-3.182,3.182Z"/><path class="cls-1" d="M142.31374,378.87586A451.42169,451.42169,0,0,0,191.8632,418.3946c3.62077,2.51294,7.93856,4.55294,11.09679,7.65064,1.93737,1.90024,3.91238,4.74324,3.8962,7.61965-.02206,3.92153-3.8575,5.726-7.35507,4.78167-4.30448-1.16219-8.28815-4.70123-11.88965-7.18576q-6.24095-4.30538-12.36533-8.7767c-31.45743-22.99613-60.87976-49.65569-83.97807-81.19641a264.24588,264.24588,0,0,1-17.19352-26.6182c-2.55349-4.54289-5.14979-9.17873-7.24769-13.9548-1.40888-3.20742-2.809-7.31137.94684-9.5802,3.422-2.06717,7.53435.32343,10.23957,2.57791v-3.182h0a2.29057,2.29057,0,0,0,0,3.182c4.70726,4.61454,6.92467,11.64982,10.053,17.36568,3.31642,6.05951,6.929,11.95507,10.78712,17.68437a276.20516,276.20516,0,0,0,25.41254,31.99435c1.95857,2.14179,5.134-1.0474,3.182-3.182a266.2519,266.2519,0,0,1-26.62422-33.97126Q95.16538,314.93942,90.3242,305.775c-2.77624-5.27444-4.80455-11.00536-9.129-15.24459v3.182h0a2.27386,2.27386,0,0,0,0-3.182c-6.02151-5.01821-17.65531-7.74832-20.1896,2.60624-.958,3.91419.98225,7.82021,2.61722,11.26429,2.6965,5.6802,5.73833,11.22259,8.92252,16.64184a299.09948,299.09948,0,0,0,42.23488,55.04412,434.43729,434.43729,0,0,0,54.80957,47.78751q7.09672,5.27354,14.36361,10.31257c4.69009,3.25511,9.89992,7.92,15.69341,8.90073,8.24683,1.39605,13.60959-6.113,10.88626-13.63084-1.71813-4.74294-5.54527-7.89667-9.654-10.53308-6.45012-4.13877-12.70211-8.53865-18.87082-13.08989a424.38521,424.38521,0,0,1-36.51255-30.14c-2.12209-1.966-5.31189,1.20869-3.182,3.182Z"/></g></svg>