<svg id="logo_white_lines" data-name="logo white lines" xmlns="http://www.w3.org/2000/svg" viewBox="0 0 496 512"><defs><style>.cls-1{fill:#fff;}</style></defs><path class="cls-1" d="M221.67546,477.5026c90.50931,9.97238,180.85183-37.35243,223.87366-117.73145a220.376,220.376,0,0,0,24.30006-131.01839A226.60632,226.60632,0,0,0,416.57377,109.781,221.51333,221.51333,0,0,0,170.49463,46.39853c-84.3627,31.6969-144.574,113.1101-146.20112,203.77193-1.641,91.43774,56.04524,176.656,139.9977,211.78809a233.42281,233.42281,0,0,0,32.81736,10.909c2.80827.71143,4.00627-3.62739,1.19628-4.33926C110.634,446.31814,42.003,371.33541,30.47936,281.13874A213.715,213.715,0,0,1,54.458,152.8163a223.66867,223.66867,0,0,1,90.78881-90.07136,216.80291,216.80291,0,0,1,247.462,29.20177C459.11826,151.14647,484.68683,246.91,453.713,330.75053,423.14113,413.50325,342.1802,471.35822,254.14,474.30005a227.12084,227.12084,0,0,1-32.46457-1.29745c-2.87439-.3167-2.85191,4.18578,0,4.5Z"/><path class="cls-1" d="M235.27273,195.78586c2.89553,0,2.90033-4.5,0-4.5-2.89554,0-2.90034,4.5,0,4.5Z"/><path class="cls-1" d="M235.27273,191.28586c-35.74157-1.63493-72.40756.43355-107.06247,9.86572-7.97651,2.171-16.019,4.54571-23.36826-.7328-6.58967-4.73294-8.90408-13.22767-7.05526-20.93288,1.82818-7.61922,7.63695-12.03947,14.84212-14.12342,8.02589-2.32131,16.172-4.2494,24.36432-5.88312,35.48927-7.07735,72.17491-8.49987,108.23694-6.21117,34.93171,2.217,69.8471,8.22758,103.07044,19.39147,17.297,5.81222,34.96792,12.86115,50.44269,22.6632,15.73148,9.96467,10.31692,35.57288-9.09042,36.18786l2.25,2.25v0a2.29039,2.29039,0,0,0-2.25-2.25c-6.04292-.19769-10.527-3.37449-15.6457-6.18816q-6.52032-3.58416-13.30971-6.64626a257.09154,257.09154,0,0,0-29.2894-11.12276,369.26483,369.26483,0,0,0-67.48536-13.92858c-2.87029-.33871-2.84593,4.16416,0,4.5a358.64812,358.64812,0,0,1,69.55448,14.81487,236.07489,236.07489,0,0,1,29.98137,11.9871c8.47363,4.12692,16.47546,10.76584,26.19432,11.08379l-2.25-2.25v0a2.276,2.276,0,0,0,2.25,2.25c15.02433-.47609,24.85726-13.50713,22.59037-28.10964-2.42074-15.5936-19.938-21.78732-32.52593-27.60911-35.10576-16.2361-73.34973-25.16074-111.66532-29.50911-40.74016-4.62354-82.51688-4.24891-122.98084,2.64525-9.71322,1.65492-19.35793,3.72435-28.876,6.27537-6.83466,1.83181-13.415,3.68654-18.11515,9.34319-8.96477,10.7892-6.55174,28.5377,5.52128,35.93289,7.77944,4.7652,15.9492,3.26582,24.2437.94109a265.6566,265.6566,0,0,1,32.37365-6.78905c24.80669-3.71342,50.02031-4.49087,75.05415-3.34574,2.89518.13243,2.88856-4.36787,0-4.5Z"/><path class="cls-1" d="M230.08515,260.68134a300.56324,300.56324,0,0,0-59.21369,2.15361,270.00728,270.00728,0,0,0-29.90891,5.83322c-8.61356,2.20375-17.65385,6.04045-24.812-1.6643-5.46821-5.88579-5.37387-16.50913.35681-22.22273,5.2175-5.20195,14.80322-6.261,21.70132-7.9421a289.94107,289.94107,0,0,1,48.3415-7.59243A338.80526,338.80526,0,0,1,300.575,240.36838a285.07879,285.07879,0,0,1,51.13787,19.46151c7.11452,3.55191,17.08129,7.34852,22.048,13.76172,5.14526,6.64376,4.251,17.24879-2.31046,22.60654-9.1809,7.49664-18.56074.13646-27.01924-4.40417a241.73745,241.73745,0,0,0-26.16822-12.02492,288.21522,288.21522,0,0,0-62.35236-16.36026c-2.833-.42586-4.05487,3.90955-1.19628,4.33925a287.73788,287.73788,0,0,1,63.14427,16.67053,227.96117,227.96117,0,0,1,29.22906,13.98829c7.01868,4.01046,13.83568,7.49581,21.98,4.33917,14.199-5.5034,16.504-25.31328,5.341-34.98015-6.9544-6.02236-16.59936-10.0503-24.84538-13.97741a286.95274,286.95274,0,0,0-27.4791-11.3573c-40.77143-14.4569-84.59005-20.116-127.73323-18.13815a298.89343,298.89343,0,0,0-55.32753,7.72233c-7.26459,1.72338-16.06279,2.89944-22.43957,6.99512-6.07229,3.90011-9.01582,10.69362-8.91405,17.79335a19.826,19.826,0,0,0,12.26852,18.1425c9.55135,3.85433,20.26373-1.6161,29.6329-3.71725a288.92725,288.92725,0,0,1,80.514-6.04774c2.89262.17339,2.88247-4.32722,0-4.5Z"/><path class="cls-1" d="M219.02063,325.39507c-25.97592-.33329-53.42634,1.81358-78.61477,8.48622-5.64962,1.49663-11.46553,2.698-15.96676-2.19113a13.40746,13.40746,0,0,1-1.24148-15.68749c2.88582-4.488,8.125-5.24125,12.93308-6.25657q9.12466-1.92687,18.32279-3.48037c48.52777-8.15782,99.34407-7.81656,146.22316,8.45337a221.32153,221.32153,0,0,1,37.99481,17.35268c5.42409,3.12813,10.13384,6.20263,10.55151,13.02206.43557,7.11177-4.04033,12.7344-11.28324,13.06485l2.25,2.25v0a2.29376,2.29376,0,0,0-2.25-2.25c-4.45667-.20509-7.85245-2.61723-11.58556-4.77491q-5.51028-3.18485-11.22327-6.003a203.38606,203.38606,0,0,0-21.10653-8.96885,222.81146,222.81146,0,0,0-46.04177-10.94462c-2.86086-.38346-2.83266,4.12032,0,4.5a216.20631,216.20631,0,0,1,48.1788,12.01814,192.752,192.752,0,0,1,23.13916,10.611c6.04163,3.26677,11.55545,7.73622,18.63917,8.06221l-2.25-2.25v0a2.27324,2.27324,0,0,0,2.25,2.25c10.57662-.48255,17.04205-9.33527,15.57629-19.59957-1.65362-11.57975-14.956-16.49717-24.1351-21.09136-25.66534-12.84568-53.56436-20.51392-82.04463-23.69044-29.272-3.26482-58.90133-1.78112-87.96645,2.66816q-11.39828,1.74484-22.69214,4.09668c-4.91259,1.01788-10.081,1.73246-14.0929,4.99854-7.47454,6.085-7.68989,18.62919-.89627,25.29427a16.56678,16.56678,0,0,0,14.97427,4.09987c8.08454-1.54905,16.01478-3.65807,24.16745-4.99416a333.37839,333.37839,0,0,1,58.19038-4.54561c2.89666.03717,2.89825-4.46281,0-4.5Z"/></svg>