<svg xmlns="http://www.w3.org/2000/svg" viewBox="0 0 496 512"><defs><style>.cls-1{fill:#fff;}</style></defs><g id="musics_icon" data-name="musics icon"><path class="cls-1" d="M213.3499,159.20292l71.87023-17.74932,114.06818-28.17067,26.3888-6.51707a2.2844,2.2844,0,0,0,1.65186-2.16963q-.0032-35.83743-.05348-71.67488a2.27619,2.27619,0,0,0-2.84814-2.16963L346.08668,50.18317,221.15445,81.1711l-28.76356,7.13445a2.28481,2.28481,0,0,0-1.65186,2.16963q-.00371,36.55446-.00047,73.10894V400.19164c0,3.60718.34015,7.20338.34483,10.80772A70.54328,70.54328,0,0,1,172.57712,458.073c-24.076,26.31325-65.12039,30.5694-94.03965,9.63-28.854-20.89218-37.66013-61.4721-20.018-92.43556a71.376,71.376,0,0,1,38.12839-31.88363,74.53866,74.53866,0,0,1,25.14515-3.98912c8.66472.04427,17.60294.41658,25.8348,3.38063,7.77478,2.79946,13.95535,8.0832,19.33,14.23005,1.90983,2.18423,5.08176-1.00924,3.182-3.182-11.37649-13.01108-25.21022-18.10824-42.23052-18.79731-17.85882-.723-35.07137,2.646-50.03306,12.85132C49.47009,367.253,37.32158,404.63009,49.61949,436.904c12.3217,32.33635,45.88767,52.60253,80.26442,48.16118,33.55124-4.33471,60.74029-31.5114,65.06864-65.06865,1.29347-10.02808.286-20.88607.286-31.06786V188.02143q0-46.14186,0-92.2837.00009-2.63128.00047-5.26255l-1.65186,2.16963,78.34067-19.43146L396.86007,42.22543,425.62362,35.091l-2.84813-2.16963q.027,35.83742.05348,71.67488l1.65186-2.16963-71.87022,17.74932L238.54242,148.34659l-26.3888,6.51707c-2.81.694-1.61977,5.03472,1.19628,4.33926Z"/><path class="cls-1" d="M453.86172,28.71579q-.00371,36.55447-.00047,73.10894V338.43225c0,3.60719.34015,7.20338.34483,10.80773a70.54323,70.54323,0,0,1-18.50626,47.07361c-24.076,26.31325-65.12039,30.5694-94.03965,9.63-28.854-20.89217-37.66013-61.4721-20.018-92.43555a71.37594,71.37594,0,0,1,38.12838-31.88364,74.50454,74.50454,0,0,1,25.1453-3.989c8.68288.04594,17.63548.43857,25.88,3.42008,7.787,2.81605,13.98529,8.10624,19.37214,14.26685,1.90987,2.18419,5.08181-1.00927,3.182-3.182-11.38986-13.02589-25.2713-18.1674-42.31446-18.87057-17.85628-.73671-35.07879,2.64552-50.03664,12.84819-28.4061,19.37563-40.55461,56.75271-28.2567,89.02663,12.3217,32.33634,45.88767,52.60253,80.26442,48.16117,33.55124-4.3347,60.74029-31.5114,65.06864-65.06864,1.29347-10.02809.286-20.88608.286-31.06787V126.262q0-46.14186,0-92.2837.00009-2.63127.00047-5.26255c.0003-2.89555-4.4997-2.90032-4.5,0Z"/></g></svg>